# xmcd
#
# Track frame offsets:
#	150
#	32682
#	64022
#	97037
#	143787
#	173367
#	208057
#	245880
#	257902
#	293390
#
# Disc length: 4266 seconds
#
# Revision: 0
# Processed by: cddbd v1.5PL3 Copyright (c) Steve Scherf et al.
# Submitted via: MusicManager 7.0.4.0 
#
DISCID=8e10a80a
DTITLE=Peter Leitch - Blues on the Corner
DYEAR=1999
DGENRE=blues
TTITLE0=Blues on the Corner
TTITLE1=The Hillary Step
TTITLE2=Nothing Ever Changes my love For You
TTITLE3=Johan Carolyn
TTITLE4=Monk's Mood
TTITLE5=K. Zee
TTITLE6=Wendy's Shoes
TTITLE7=Bud 'n Bird
TTITLE8=How Long Has This Been Going On?
TTITLE9=From This Moment On
EXTD=
EXTT0=
EXTT1=
EXTT2=
EXTT3=
EXTT4=
EXTT5=
EXTT6=
EXTT7=
EXTT8=
EXTT9=
PLAYORDER=
